<svg xmlns="http://www.w3.org/2000/svg" viewBox="0 0 894.41 168.73"><defs><style>.cls-1,.cls-2{fill:#231f20;stroke:#231f20;stroke-miterlimit:10;}.cls-2{stroke-width:2px;}</style></defs><title>Risorsa 10</title><g id="Livello_2" data-name="Livello 2"><g id="Livello_1-2" data-name="Livello 1"><path class="cls-1" d="M47.16,130.75,15.08,162.83c-1.17,1.17-2.29,2.42-3.57,3.49-3,2.49-6.2,2.64-9-.11s-2.65-6,0-8.91c2.92-3.19,6.07-6.18,9.13-9.25l27.29-27.24A67.48,67.48,0,0,1,27.55,79.36C28.67,52.92,50,27.21,75.74,21.68c4.41-.95,7.73.7,8.82,4.38s-1.21,7-6.31,8.45C58,40.37,45.46,53.76,41.18,74.25c-5.6,26.82,11.44,52.88,38.39,59.67,26.27,6.62,53.3-9,61.12-35.21.19-.64.37-1.28.57-1.91,1.57-4.92,4.45-6.93,8.24-5.76s5.34,4.36,4.24,9.31c-5.38,24.23-29.3,44.91-54.05,47.45-19,1.95-35.52-3.11-50-15.24C49,132,48.31,131.59,47.16,130.75Z"/><path class="cls-1" d="M118.81,59c7.22,8.8,10.6,18.49,9.22,29.78-2.07,17-16.92,31.06-33.92,31.82-18.65.83-35-11.45-38.41-28.91C53,77.45,57,65.29,68,55.85c10.82-9.26,23.34-10.8,36.5-6.09,3.35,1.2,5,.49,7.25-1.76,14.63-14.81,29.4-29.5,44.12-44.22,1.06-1,2.08-2.8,3.27-2.95,2.69-.32,6-.74,8.09.53,3,1.86,3,5.4.78,8.37a37.38,37.38,0,0,1-3.78,4C149.15,28.78,134.06,43.83,118.81,59ZM91.65,107.48a23.61,23.61,0,0,0,23.91-23.61,24.17,24.17,0,0,0-24-23.8A23.75,23.75,0,0,0,67.85,84C67.86,97.36,78.1,107.48,91.65,107.48Z"/><path class="cls-2" d="M258.05,101.17H223.32l-7,18.72H198.63l33.92-83h16.28l33.92,83H265.11ZM229,86h23.34L240.69,54.9Z"/><path class="cls-2" d="M329,120.57a27.51,27.51,0,0,1-11.53-2.24,25.29,25.29,0,0,1-8.41-6.17V147H292.79V86A39.92,39.92,0,0,1,295,72.47a30.87,30.87,0,0,1,6.64-11,31.64,31.64,0,0,1,10.79-7.39,41.39,41.39,0,0,1,29.85.13,32.5,32.5,0,0,1,10.92,7.6,30.94,30.94,0,0,1,6.58,11,39.28,39.28,0,0,1,2.17,13,37.37,37.37,0,0,1-2.44,13.63,33.42,33.42,0,0,1-6.85,11,32.59,32.59,0,0,1-10.45,7.4A31.88,31.88,0,0,1,329,120.57ZM345.7,86a27.32,27.32,0,0,0-1-7.6,16.61,16.61,0,0,0-3.25-6.17,15.3,15.3,0,0,0-5.77-4.14,22,22,0,0,0-8.55-1.49q-8.42,0-13.23,4.68T309.07,86q0,10.05,4.81,14.72t13.23,4.68a21.82,21.82,0,0,0,8.55-1.49,15.09,15.09,0,0,0,5.77-4.14,16.53,16.53,0,0,0,3.25-6.17A27.22,27.22,0,0,0,345.7,86Z"/><path class="cls-2" d="M410.42,120.57a27.53,27.53,0,0,1-11.54-2.24,25.39,25.39,0,0,1-8.41-6.17V147H374.19V86a40.17,40.17,0,0,1,2.24-13.5,30.9,30.9,0,0,1,6.65-11,31.6,31.6,0,0,1,10.78-7.39,41.39,41.39,0,0,1,29.85.13,32.5,32.5,0,0,1,10.92,7.6,30.8,30.8,0,0,1,6.58,11,39.29,39.29,0,0,1,2.18,13,37.38,37.38,0,0,1-2.45,13.63,33.42,33.42,0,0,1-6.85,11,32.48,32.48,0,0,1-10.45,7.4A31.84,31.84,0,0,1,410.42,120.57ZM427.1,86a27.7,27.7,0,0,0-1-7.6,16.63,16.63,0,0,0-3.26-6.17,15.22,15.22,0,0,0-5.77-4.14,22,22,0,0,0-8.54-1.49q-8.41,0-13.23,4.68T390.47,86q0,10.05,4.82,14.72t13.23,4.68a21.8,21.8,0,0,0,8.54-1.49,15,15,0,0,0,5.77-4.14,16.55,16.55,0,0,0,3.26-6.17A27.6,27.6,0,0,0,427.1,86Z"/><path class="cls-2" d="M451.66,86A39,39,0,0,1,454,72.47a31.2,31.2,0,0,1,6.78-11,32.28,32.28,0,0,1,10.92-7.39,40.46,40.46,0,0,1,29.17,0,32.09,32.09,0,0,1,10.92,7.39,31.22,31.22,0,0,1,6.79,11,40.77,40.77,0,0,1,0,27,31.13,31.13,0,0,1-6.79,11,32.11,32.11,0,0,1-10.92,7.4,40.6,40.6,0,0,1-29.17,0,32.31,32.31,0,0,1-10.92-7.4,31.11,31.11,0,0,1-6.78-11A38.91,38.91,0,0,1,451.66,86Zm16.28,0a27.22,27.22,0,0,0,1,7.6,16.53,16.53,0,0,0,3.25,6.17,15.22,15.22,0,0,0,5.7,4.14,24.11,24.11,0,0,0,16.69,0,15.07,15.07,0,0,0,5.7-4.14,16.55,16.55,0,0,0,3.26-6.17,29.1,29.1,0,0,0,0-15.2,16.63,16.63,0,0,0-3.26-6.17,15.28,15.28,0,0,0-5.7-4.14,24.11,24.11,0,0,0-16.69,0,15.44,15.44,0,0,0-5.7,4.14A16.61,16.61,0,0,0,469,78.37,27.32,27.32,0,0,0,467.94,86Z"/><path class="cls-2" d="M530.89,33.87a10.36,10.36,0,0,1,2.78-7.32,10,10,0,0,1,7.67-3,9.65,9.65,0,0,1,7.6,3.05,10.57,10.57,0,0,1,2.71,7.26,10.75,10.75,0,0,1-2.71,7.4,9.65,9.65,0,0,1-7.6,3,9.88,9.88,0,0,1-7.67-3A10.62,10.62,0,0,1,530.89,33.87Zm18.59,86H533.2V52.05h16.28Z"/><path class="cls-2" d="M599,66.57q-8.68,0-12.82,5.43T582,86v33.92H565.76V86A40.17,40.17,0,0,1,568,72.47a31.93,31.93,0,0,1,6.51-11A30.62,30.62,0,0,1,585,54.09a37.6,37.6,0,0,1,28.08,0,30.62,30.62,0,0,1,10.45,7.39,31.93,31.93,0,0,1,6.51,11A39.92,39.92,0,0,1,632.24,86v33.92H616V86q0-8.55-4.14-14T599,66.57Z"/><path class="cls-2" d="M680.81,105.37a22.84,22.84,0,0,0,3.39-.2c.91-.14,1.81-.29,2.72-.47v15.19c-1.18.18-2.15.34-2.92.48a24.86,24.86,0,0,1-3.73.2,35,35,0,0,1-14.11-2.71,32,32,0,0,1-10.65-7.4,32.45,32.45,0,0,1-6.78-11A37.81,37.81,0,0,1,646.35,86V35.77h16.28V54.36h21v15.2h-21V86q0,8.55,4.41,14T680.81,105.37Z"/><path class="cls-2" d="M717.31,119.89H701v-83h36.63a29.12,29.12,0,0,1,20.28,8.07,28.09,28.09,0,0,1,6.11,8.68,25.8,25.8,0,0,1,0,21,28,28,0,0,1-6.11,8.69,29.12,29.12,0,0,1-20.28,8.07H717.31ZM737.66,76.2a12.09,12.09,0,0,0,8.82-3.46,12.3,12.3,0,0,0,0-17.23,12.13,12.13,0,0,0-8.82-3.46H717.31V76.2Z"/><path class="cls-2" d="M794.5,119.89H778.22V86.11a39.51,39.51,0,0,1,2.31-13.57,31.19,31.19,0,0,1,6.78-11.06,32.1,32.1,0,0,1,11-7.39,38.56,38.56,0,0,1,14.93-2.72,21.33,21.33,0,0,1,3,.21c1,.13,2,.29,3,.47V67.79c-.91-.18-1.77-.34-2.58-.47a15.14,15.14,0,0,0-2.58-.21,25,25,0,0,0-9.29,1.5,16.2,16.2,0,0,0-6,4,14.27,14.27,0,0,0-3.26,6,27.91,27.91,0,0,0-1,7.39Z"/><path class="cls-2" d="M824.22,86a39,39,0,0,1,2.3-13.5,31.22,31.22,0,0,1,6.79-11,32.09,32.09,0,0,1,10.92-7.39,40.46,40.46,0,0,1,29.17,0,32.19,32.19,0,0,1,10.92,7.39,31.22,31.22,0,0,1,6.79,11,40.77,40.77,0,0,1,0,27,31.13,31.13,0,0,1-6.79,11,32.21,32.21,0,0,1-10.92,7.4,40.6,40.6,0,0,1-29.17,0,32.11,32.11,0,0,1-10.92-7.4,31.13,31.13,0,0,1-6.79-11A38.91,38.91,0,0,1,824.22,86Zm16.28,0a27.22,27.22,0,0,0,1,7.6,16.39,16.39,0,0,0,3.25,6.17,15.07,15.07,0,0,0,5.7,4.14,24.11,24.11,0,0,0,16.69,0,15.14,15.14,0,0,0,5.7-4.14,16.39,16.39,0,0,0,3.25-6.17,28.82,28.82,0,0,0,0-15.2,16.46,16.46,0,0,0-3.25-6.17,15.36,15.36,0,0,0-5.7-4.14,24.11,24.11,0,0,0-16.69,0,15.28,15.28,0,0,0-5.7,4.14,16.46,16.46,0,0,0-3.25,6.17A27.32,27.32,0,0,0,840.5,86Z"/></g></g></svg>